<svg xmlns="http://www.w3.org/2000/svg" version="1.1" xmlns:xlink="http://www.w3.org/1999/xlink" xmlns:svgjs="http://svgjs.com/svgjs" width="1440" height="560" preserveAspectRatio="none" viewBox="0 0 1440 560"><g mask="url(&quot;#SvgjsMask1010&quot;)" fill="none"><rect width="1440" height="560" x="0" y="0" fill="rgba(174, 189, 202, 1)"></rect><path d="M 0,276 C 57.6,223.2 172.8,38 288,12 C 403.2,-14 460.8,120.6 576,146 C 691.2,171.4 748.8,122.6 864,139 C 979.2,155.4 1036.8,247.8 1152,228 C 1267.2,208.2 1382.4,77.6 1440,40L1440 560L0 560z" fill="rgba(232, 223, 202, 1)"></path><path d="M 0,465 C 96,446.6 288,367.4 480,373 C 672,378.6 768,487 960,493 C 1152,499 1344,421 1440,403L1440 560L0 560z" fill="rgba(245, 239, 230, 1)"></path></g><defs><mask id="SvgjsMask1010"><rect width="1440" height="560" fill="#ffffff"></rect></mask></defs></svg>