<svg xmlns="http://www.w3.org/2000/svg" version="1.1" xmlns:xlink="http://www.w3.org/1999/xlink" xmlns:svgjs="http://svgjs.com/svgjs" width="1440" height="560" preserveAspectRatio="none" viewBox="0 0 1440 560"><g mask="url(&quot;#SvgjsMask1072&quot;)" fill="none"><rect width="1440" height="560" x="0" y="0" fill="rgba(245, 239, 230, 1)"></rect><path d="M0,512.186C103.848,501.149,219.305,534.219,304.557,473.901C389.187,414.023,389.888,291.702,439.942,200.915C495.446,100.244,615.889,26.591,614.554,-88.359C613.213,-203.862,515.875,-294.693,433.25,-375.414C355.615,-451.26,258.4,-496.113,157.155,-535.219C47.474,-577.584,-65.78,-641.074,-179.755,-612.191C-294.641,-583.078,-371.401,-478.232,-442.349,-383.297C-509.297,-293.714,-549.963,-191.631,-575.434,-82.735C-602.968,34.978,-636.711,158.319,-595.631,272.015C-553.253,389.305,-464.873,496.746,-349.211,543.383C-238.583,587.991,-118.615,524.792,0,512.186" fill="#eadecb"></path><path d="M1440 960.664C1513.52 954.962 1564.634 890.321 1626.223 849.768 1687.001 809.748 1777.376 793.476 1799.2939999999999 724.0840000000001 1821.527 653.697 1748.0149999999999 589.985 1730.964 518.1659999999999 1716.026 455.25 1744.249 381.69100000000003 1705.679 329.788 1666.694 277.326 1594.725 264.789 1531.211 249.36200000000002 1470.205 234.54399999999998 1408.593 231.48399999999998 1346.809 242.62099999999998 1279.222 254.80399999999997 1206.228 266.658 1158.945 316.464 1111.022 366.94399999999996 1095.932 440.555 1092.887 510.093 1090.024 575.46 1118.981 634.8199999999999 1142.327 695.943 1167.32 761.3779999999999 1181.897 833.623 1234.239 880.171 1290.411 930.125 1365.054 966.477 1440 960.664" fill="#ffffff"></path></g><defs><mask id="SvgjsMask1072"><rect width="1440" height="560" fill="#ffffff"></rect></mask></defs></svg>