<svg xmlns="http://www.w3.org/2000/svg" version="1.1" xmlns:xlink="http://www.w3.org/1999/xlink" xmlns:svgjs="http://svgjs.com/svgjs" width="1440" height="560" preserveAspectRatio="none" viewBox="0 0 1440 560"><g mask="url(&quot;#SvgjsMask1031&quot;)" fill="none"><rect width="1440" height="560" x="0" y="0" fill="rgba(245, 239, 230, 1)"></rect><path d="M 0,197 C 57.6,165 172.8,32.6 288,37 C 403.2,41.4 460.8,208.8 576,219 C 691.2,229.2 748.8,91.6 864,88 C 979.2,84.4 1036.8,209.4 1152,201 C 1267.2,192.6 1382.4,77 1440,46L1440 560L0 560z" fill="rgba(174, 189, 202, 1)"></path><path d="M 0,505 C 144,482.6 432,392.6 720,393 C 1008,393.4 1296,484.2 1440,507L1440 560L0 560z" fill="rgba(245, 239, 230, 1)"></path></g><defs><mask id="SvgjsMask1031"><rect width="1440" height="560" fill="#ffffff"></rect></mask></defs></svg>