<svg xmlns="http://www.w3.org/2000/svg" version="1.1" xmlns:xlink="http://www.w3.org/1999/xlink" xmlns:svgjs="http://svgjs.com/svgjs" width="1920" height="1080" preserveAspectRatio="none" viewBox="0 0 1920 1080"><g mask="url(&quot;#SvgjsMask1065&quot;)" fill="none"><rect width="1920" height="1080" x="0" y="0" fill="url(#SvgjsLinearGradient1066)"></rect><path d="M 0,205 C 128,234 384,367.4 640,350 C 896,332.6 1024,82 1280,118 C 1536,154 1792,447.6 1920,530L1920 1080L0 1080z" fill="rgba(174, 189, 202, 1)"></path><path d="M 0,986 C 128,905.8 384,578.2 640,585 C 896,591.8 1024,1014.8 1280,1020 C 1536,1025.2 1792,692.8 1920,611L1920 1080L0 1080z" fill="rgba(245, 239, 230, 1)"></path></g><defs><mask id="SvgjsMask1065"><rect width="1920" height="1080" fill="#ffffff"></rect></mask><linearGradient x1="89.06%" y1="119.44%" x2="10.94%" y2="-19.44%" gradientUnits="userSpaceOnUse" id="SvgjsLinearGradient1066"><stop stop-color="#0e2a47" offset="0"></stop><stop stop-color="#00459e" offset="1"></stop></linearGradient></defs></svg>